<svg xmlns="http://www.w3.org/2000/svg" data-name="Layer 1" width="786.81995" height="572.25773" viewBox="0 0 786.81995 572.25773" xmlns:xlink="http://www.w3.org/1999/xlink"><circle cx="458.32136" cy="74.18162" r="26.70075" fill="#f2f2f2"/><path d="M872.03753,661.02307c39.6877-30.22889,58.64352-81.02546,46.77635-129.48234q-.44231-1.806-.93367-3.6038c-7.86742-28.76343-27.33167-53.3769-48.53028-74.66485-21.19984-21.28794-44.15245-41.18227-62.05208-64.83044-17.89963-23.64704-30.86548-52.38844-29.06924-82.87324,1.79744-30.48593,20.61359-58.82186,47.46548-72.47159,26.85075-13.65086,60.44263-12.52541,86.89122,1.74073" transform="translate(-206.59003 -163.87113)" fill="#f2f2f2"/><path d="M864.3578,657.34609c-39.39542-30.00483-58.21579-80.44913-46.44366-128.57728q.43784-1.79322.92474-3.57455c7.79535-28.50626,27.07235-52.90614,48.09181-74.00182,21.02059-21.09568,43.77981-40.83382,61.52795-64.25391,17.74814-23.41894,30.57683-51.89064,28.79751-82.08239-1.77932-30.19288-20.42427-58.2645-47.05267-71.76331-26.62727-13.49994-59.93231-12.41156-86.19752,1.72516" transform="translate(-206.59003 -163.87113)" fill="#fff"/><circle cx="428.32136" cy="44.18162" r="26.70075" fill="#f2f2f2"/><path d="M842.03753,631.02307c39.6877-30.22889,58.64352-81.02546,46.77635-129.48234q-.44231-1.806-.93367-3.6038c-7.86742-28.76343-27.33167-53.3769-48.53028-74.66485-21.19984-21.28794-44.15245-41.18227-62.05208-64.83044-17.89963-23.64704-30.86548-52.38844-29.06924-82.87324,1.79744-30.48593,20.61359-58.82186,47.46548-72.47159,26.85075-13.65086,60.44263-12.52541,86.89122,1.74073" transform="translate(-206.59003 -163.87113)" fill="#f2f2f2"/><path d="M834.3578,627.34609c-39.39542-30.00483-58.21579-80.44913-46.44366-128.57728q.43784-1.79322.92474-3.57455c7.79535-28.50626,27.07235-52.90614,48.09181-74.00182,21.02059-21.09568,43.77981-40.83382,61.52795-64.25391,17.74814-23.41894,30.57683-51.89064,28.79751-82.08239-1.77932-30.19288-20.42427-58.2645-47.05267-71.76331-26.62727-13.49994-59.93231-12.41156-86.19752,1.72516" transform="translate(-206.59003 -163.87113)" fill="#fff"/><path d="M885.25124,735.56411H414.58107a7.00787,7.00787,0,0,1-7-7V171.87113a7.00787,7.00787,0,0,1,7-7H885.25124a7.00786,7.00786,0,0,1,7,7V728.56411A7.00786,7.00786,0,0,1,885.25124,735.56411Z" transform="translate(-206.59003 -163.87113)" fill="#e6e6e6"/><path d="M870.25124,242.56411H429.58107a7.00787,7.00787,0,0,1-7-7V186.87113a7.00787,7.00787,0,0,1,7-7H870.25124a7.00786,7.00786,0,0,1,7,7v48.69298A7.00786,7.00786,0,0,1,870.25124,242.56411Z" transform="translate(-206.59003 -163.87113)" fill="#4f46e5"/><circle cx="254.21506" cy="34.82048" r="18" fill="#fff"/><circle cx="308.21506" cy="34.82048" r="18" fill="#fff"/><circle cx="362.21506" cy="34.82048" r="18" fill="#fff"/><path d="M884.25124,718.56411H429.58107a7.00787,7.00787,0,0,1-7-7V257.87113a7.00787,7.00787,0,0,1,7-7H884.25124a7.00786,7.00786,0,0,1,7,7V711.56411A7.00786,7.00786,0,0,1,884.25124,718.56411Z" transform="translate(-206.59003 -163.87113)" fill="#fff"/></svg> 